<svg xmlns="http://www.w3.org/2000/svg" viewBox="0 0 640 360" width="640" height="360" style="background:#0b0f19; font-family: -apple-system, BlinkMacSystemFont, 'Segoe UI', Roboto, Helvetica, Arial, sans-serif; display: block;">
  <defs>
    <linearGradient id="bgGrad_speech_ai_thumb_svg" x1="0%" y1="0%" x2="100%" y2="100%">
      <stop offset="0%" stop-color="#0b0f19" />
      <stop offset="60%" stop-color="#2e1065" />
      <stop offset="100%" stop-color="#c084fc" stop-opacity="0.3" />
    </linearGradient>
    <pattern id="gridPattern_speech_ai_thumb_svg" x="0" y="0" width="24" height="24" patternUnits="userSpaceOnUse">
      <path d="M 24 0 L 0 0 0 24" fill="none" stroke="rgba(255,255,255,0.06)" stroke-width="1"/>
    </pattern>
  </defs>

  <!-- Background Base -->
  <rect width="640" height="360" fill="url(#bgGrad_speech_ai_thumb_svg)" />
  <rect width="640" height="360" fill="url(#gridPattern_speech_ai_thumb_svg)" />

  <!-- Top Window Header Bar -->
  <rect x="0" y="0" width="640" height="38" fill="rgba(15, 23, 42, 0.85)" />
  <line x1="0" y1="38" x2="640" y2="38" stroke="rgba(255,255,255,0.1)" stroke-width="1" />
  
  <!-- Traffic Light Window Controls -->
  <circle cx="20" cy="19" r="5" fill="#ef4444" />
  <circle cx="36" cy="19" r="5" fill="#f59e0b" />
  <circle cx="52" cy="19" r="5" fill="#10b981" />

  <!-- Category & Status Badge -->
  <rect x="75" y="8" width="240" height="22" rx="11" fill="rgba(255,255,255,0.08)" />
  <text x="195" y="23" fill="#9333ea" font-size="10" font-weight="800" letter-spacing="0.5" text-anchor="middle">NLP • ACOUSTIC DEEP LEARNING</text>

  <rect x="440" y="8" width="180" height="22" rx="11" fill="rgba(16,185,129,0.15)" stroke="rgba(16,185,129,0.4)" stroke-width="1" />
  <circle cx="455" cy="19" r="3.5" fill="#c084fc" />
  <text x="535" y="23" fill="#ffffff" font-size="10" font-weight="700" text-anchor="middle">Audio DSP • CTC Decoder</text>

  <!-- Inner Content Graphics -->
  
            <!-- Audio Waveform Input -->
            <g transform="translate(35, 80)">
                <rect width="160" height="135" rx="10" fill="#1e293b" stroke="#a855f7" stroke-width="2"/>
                <text x="15" y="24" fill="#c084fc" font-size="11" font-weight="700">RAW AUDIO SIGNAL</text>
                <text x="15" y="38" fill="#94a3b8" font-size="9.5">16kHz Mel-Spectrogram</text>
                
                <!-- Soundwave visualization -->
                <path d="M15 100 Q 25 50, 35 100 T 55 100 T 75 40 T 95 130 T 115 60 T 135 110 T 145 100" fill="none" stroke="#38bdf8" stroke-width="2.5"/>
                <path d="M15 100 Q 25 70, 35 100 T 55 100 T 75 60 T 95 115 T 115 80 T 135 105 T 145 100" fill="none" stroke="#c084fc" stroke-width="1.5" opacity="0.6"/>
            </g>

            <path d="M205 145 L 245 145" stroke="#c084fc" stroke-width="2.5" stroke-linecap="round"/>

            <!-- Acoustic Neural Model -->
            <g transform="translate(255, 75)">
                <rect width="180" height="145" rx="10" fill="#111827" stroke="#c084fc" stroke-width="2" filter="drop-shadow(0 6px 18px rgba(192,132,252,0.25))"/>
                <text x="15" y="24" fill="#ffffff" font-size="11" font-weight="800">CONV-TRANSFORMER</text>
                <text x="15" y="38" fill="#a855f7" font-size="9.5">CTC Acoustic Decoder</text>
                
                <!-- Neural Nodes -->
                <g transform="translate(15, 50)">
                    <circle cx="15" cy="15" r="7" fill="#6366f1"/>
                    <circle cx="15" cy="40" r="7" fill="#6366f1"/>
                    <circle cx="15" cy="65" r="7" fill="#6366f1"/>
                    
                    <circle cx="75" cy="15" r="7" fill="#a855f7"/>
                    <circle cx="75" cy="40" r="7" fill="#a855f7"/>
                    <circle cx="75" cy="65" r="7" fill="#a855f7"/>

                    <circle cx="135" cy="27" r="7" fill="#38bdf8"/>
                    <circle cx="135" cy="53" r="7" fill="#38bdf8"/>
                    
                    <!-- Connections -->
                    <line x1="22" y1="15" x2="68" y2="15" stroke="rgba(255,255,255,0.2)"/>
                    <line x1="22" y1="15" x2="68" y2="40" stroke="rgba(255,255,255,0.2)"/>
                    <line x1="22" y1="40" x2="68" y2="40" stroke="rgba(255,255,255,0.2)"/>
                    <line x1="22" y1="65" x2="68" y2="65" stroke="rgba(255,255,255,0.2)"/>
                    <line x1="82" y1="15" x2="128" y2="27" stroke="rgba(255,255,255,0.2)"/>
                    <line x1="82" y1="40" x2="128" y2="53" stroke="rgba(255,255,255,0.2)"/>
                </g>
            </g>

            <path d="M445 145 L 485 145" stroke="#34d399" stroke-width="2.5" stroke-linecap="round"/>

            <!-- Text Transcription Output -->
            <g transform="translate(495, 80)">
                <rect width="115" height="135" rx="10" fill="#1e293b" stroke="#34d399" stroke-width="2"/>
                <text x="15" y="24" fill="#34d399" font-size="11" font-weight="700">OUTPUT TEXT</text>
                <rect x="10" y="38" width="95" height="85" rx="6" fill="#0f172a"/>
                <text x="16" y="56" fill="#ffffff" font-size="9" font-family="monospace">"Distributed</text>
                <text x="16" y="70" fill="#ffffff" font-size="9" font-family="monospace"> speech AI</text>
                <text x="16" y="84" fill="#ffffff" font-size="9" font-family="monospace"> pipeline</text>
                <text x="16" y="98" fill="#ffffff" font-size="9" font-family="monospace"> transcribed"</text>
                <text x="16" y="114" fill="#10b981" font-size="8.5">WER: 4.2%</text>
            </g>

            <!-- Bottom Ticker -->
            <g transform="translate(35, 260)">
                <rect width="575" height="50" rx="8" fill="#0f172a" stroke="rgba(255,255,255,0.1)"/>
                <text x="20" y="30" fill="#94a3b8" font-size="11">Architecture:</text>
                <text x="100" y="30" fill="#ffffff" font-size="11" font-weight="700">Spectrogram Mel-Bands • PyTorch CTC Loss • Transformer</text>
            </g>
        
</svg>