<svg xmlns="http://www.w3.org/2000/svg" viewBox="0 0 400 240" width="100%" height="100%">
  <defs>
    <linearGradient id="g-cea-c" x1="0%" y1="0%" x2="100%" y2="100%">
      <stop offset="0%" stop-color="#3B0764"/>
      <stop offset="100%" stop-color="#0F172A"/>
    </linearGradient>
    <linearGradient id="gold-comm" x1="0%" y1="0%" x2="100%" y2="100%">
      <stop offset="0%" stop-color="#FDE047"/>
      <stop offset="100%" stop-color="#CA8A04"/>
    </linearGradient>
  </defs>
  <rect width="100%" height="100%" rx="16" fill="url(#g-cea-c)"/>
  <rect x="8" y="8" width="384" height="224" rx="12" fill="none" stroke="url(#gold-comm)" stroke-width="2"/>
  <!-- People / Star Icon -->
  <g transform="translate(200, 52) scale(0.85)" fill="url(#gold-comm)">
    <circle cx="0" cy="-10" r="10"/>
    <path d="M-16,14 C-16,5 16,5 16,14 Z"/>
    <circle cx="-22" cy="-5" r="7"/>
    <path d="M-34,16 C-34,10 -10,10 -10,16 Z"/>
    <circle cx="22" cy="-5" r="7"/>
    <path d="M10,16 C10,10 34,10 34,16 Z"/>
  </g>
  <text x="200" y="118" fill="url(#gold-comm)" font-family="-apple-system, BlinkMacSystemFont, 'Segoe UI', Roboto, sans-serif" font-size="11" font-weight="700" text-anchor="middle" letter-spacing="2">WORLD'S TOP CYBERSECURITY ACHIEVEMENTS</text>
  <text x="200" y="148" fill="#FFFFFF" font-family="-apple-system, BlinkMacSystemFont, 'Segoe UI', Roboto, sans-serif" font-size="17" font-weight="800" text-anchor="middle">COMMUNITY CHOICE AWARD WINNER</text>
  <text x="200" y="174" fill="#FDE047" font-family="-apple-system, BlinkMacSystemFont, 'Segoe UI', Roboto, sans-serif" font-size="12" font-weight="700" text-anchor="middle">AI &amp; Cybersecurity Global Innovation</text>
  <text x="200" y="202" fill="#94A3B8" font-family="-apple-system, BlinkMacSystemFont, 'Segoe UI', Roboto, sans-serif" font-size="11" text-anchor="middle">Featured on Yahoo Finance &amp; Newsfile Corp</text>
</svg>