<svg xmlns="http://www.w3.org/2000/svg" viewBox="0 0 400 240" width="100%" height="100%">
  <defs>
    <linearGradient id="g-gra" x1="0%" y1="0%" x2="100%" y2="100%">
      <stop offset="0%" stop-color="#450A0A"/>
      <stop offset="100%" stop-color="#1C1917"/>
    </linearGradient>
    <linearGradient id="gold-gra" x1="0%" y1="0%" x2="100%" y2="100%">
      <stop offset="0%" stop-color="#FCD34D"/>
      <stop offset="100%" stop-color="#D97706"/>
    </linearGradient>
  </defs>
  <rect width="100%" height="100%" rx="16" fill="url(#g-gra)"/>
  <rect x="8" y="8" width="384" height="224" rx="12" fill="none" stroke="url(#gold-gra)" stroke-width="2"/>
  <!-- Trophy Emblem -->
  <g transform="translate(200, 52) scale(0.85)" fill="url(#gold-gra)">
    <path d="M-22,-20 L22,-20 L18,5 C14,18 0,22 0,22 C0,22 -14,18 -18,5 Z"/>
    <path d="M-22,-15 C-32,-15 -35,-5 -22,0 L-20,-5 Z"/>
    <path d="M22,-15 C32,-15 35,-5 22,0 L20,-5 Z"/>
    <rect x="-6" y="22" width="12" height="12"/>
    <rect x="-16" y="34" width="32" height="6" rx="2"/>
  </g>
  <text x="200" y="122" fill="url(#gold-gra)" font-family="-apple-system, BlinkMacSystemFont, 'Segoe UI', Roboto, sans-serif" font-size="12" font-weight="700" text-anchor="middle" letter-spacing="2.5">2026 GLOBAL RECOGNITION AWARDS™</text>
  <text x="200" y="152" fill="#FFFFFF" font-family="-apple-system, BlinkMacSystemFont, 'Segoe UI', Roboto, sans-serif" font-size="18" font-weight="800" text-anchor="middle">AI INNOVATOR OF THE YEAR</text>
  <text x="200" y="178" fill="#FCA5A5" font-family="-apple-system, BlinkMacSystemFont, 'Segoe UI', Roboto, sans-serif" font-size="12" font-weight="600" text-anchor="middle">Palo Alto Networks Enterprise AI Leadership</text>
  <text x="200" y="204" fill="#94A3B8" font-family="-apple-system, BlinkMacSystemFont, 'Segoe UI', Roboto, sans-serif" font-size="11" text-anchor="middle">Featured in Business Insider &amp; Markets Insider</text>
</svg>