<svg xmlns="http://www.w3.org/2000/svg" viewBox="0 0 400 240" width="100%" height="100%">
  <defs>
    <linearGradient id="g-stanford" x1="0%" y1="0%" x2="100%" y2="100%">
      <stop offset="0%" stop-color="#8C1515"/>
      <stop offset="100%" stop-color="#4D0000"/>
    </linearGradient>
    <linearGradient id="gold-leaf" x1="0%" y1="0%" x2="100%" y2="100%">
      <stop offset="0%" stop-color="#FCD34D"/>
      <stop offset="100%" stop-color="#F59E0B"/>
    </linearGradient>
  </defs>
  <rect width="100%" height="100%" rx="16" fill="url(#g-stanford)"/>
  <rect x="8" y="8" width="384" height="224" rx="12" fill="none" stroke="#F59E0B" stroke-width="2" stroke-dasharray="6,4" opacity="0.6"/>
  <!-- Laurel Wreath -->
  <g fill="url(#gold-leaf)" opacity="0.9" transform="translate(200, 75) scale(0.65)">
    <path d="M-45,-20 C-60,0 -50,30 -20,45 C-10,35 -20,15 -30,0 Z"/>
    <path d="M-60,10 C-75,30 -60,60 -30,70 C-22,58 -30,40 -40,25 Z"/>
    <path d="M45,-20 C60,0 50,30 20,45 C10,35 20,15 30,0 Z"/>
    <path d="M60,10 C75,30 60,60 30,70 C22,58 30,40 40,25 Z"/>
    <circle cx="0" cy="55" r="7"/>
    <path d="M0,0 L8,24 L32,24 L12,38 L20,62 L0,48 L-20,62 L-12,38 L-32,24 L-8,24 Z" fill="url(#gold-leaf)"/>
  </g>
  <text x="200" y="150" fill="#FFFFFF" font-family="-apple-system, BlinkMacSystemFont, 'Segoe UI', Roboto, sans-serif" font-size="13" font-weight="600" text-anchor="middle" letter-spacing="3">STANFORD GRADUATE SCHOOL OF BUSINESS</text>
  <text x="200" y="180" fill="#FDE68A" font-family="-apple-system, BlinkMacSystemFont, 'Segoe UI', Roboto, sans-serif" font-size="19" font-weight="800" text-anchor="middle" letter-spacing="1">DISTINGUISHED SCHOLAR</text>
  <text x="200" y="206" fill="#FCA5A5" font-family="-apple-system, BlinkMacSystemFont, 'Segoe UI', Roboto, sans-serif" font-size="11" font-weight="600" text-anchor="middle" letter-spacing="2">HONORARY EXECUTIVE FELLOW</text>
</svg>